<svg xmlns="http://www.w3.org/2000/svg" width="250.51" height="37.361" viewBox="0 0 250.51 37.361">
  <path id="パス_1" data-name="パス 1" d="M-103.166-31.98q0,1.281-.871,1.281a5.846,5.846,0,0,0-1.127-.564,11.028,11.028,0,0,0-3.946-.41h-2.306q-1.23,0-1.537.384a4.036,4.036,0,0,0-.487,1.743q-.179,1.358-.589,4.023a136.2,136.2,0,0,0-.974,16.759q0,6.611,1.384,8.918,0,.718-.512.718-2.665,0-3.382-3.075a25.959,25.959,0,0,1-.308-5.125q0-5.74.205-8.661.051-1.384.564-6.458.41-4.049.41-6.457,0-2.921.051-1.435-.051-.769-.666-.769A15.547,15.547,0,0,0-120-30.75a15.547,15.547,0,0,1-2.742.359,2.541,2.541,0,0,1-2.665-1.64q.513-.871,7.636-1.743,5.945-.666,8.661-.666Q-103.166-34.44-103.166-31.98ZM-83.9-9.686q0,1.64-1.281,1.64a3.148,3.148,0,0,1-1.076-.2,16.031,16.031,0,0,0,1.281,5.843,1.4,1.4,0,0,1-.641,1.076,2.237,2.237,0,0,1-1.307.41A3.326,3.326,0,0,1-88.3-1.281a6.026,6.026,0,0,1-.41-2.562q0-.461.051-1.691V-7.226a3.2,3.2,0,0,0-.154-1.23,6.053,6.053,0,0,0-1.307.051,11.514,11.514,0,0,1-1.2.1,59.777,59.777,0,0,0-6.919.615q-5.381.717-6.2,1.435-.461.359-.974,3.69-.41,2.716-.461,4a.831.831,0,0,1-.717.359,2.465,2.465,0,0,1-1.486-.666,1.788,1.788,0,0,1-.82-1.281,5.465,5.465,0,0,1,.41-1.384,12.652,12.652,0,0,0,.461-1.333A68.327,68.327,0,0,1-104.7-15.426q6.765-19.219,10.455-19.219,3.946,0,6.1,10.045.769,3.536,1.794,13.53a4.653,4.653,0,0,0,1.537.564Q-83.9-10.3-83.9-9.686Zm-4.971-1.486q-1.281-9.02-1.64-10.916-1.691-8.61-3.588-8.559-2.1.1-5.279,7.892-1.794,4.92-3.536,9.84a13.391,13.391,0,0,0-.666,2q-.2,1.23.717,1.23.308,0,3.126-.513Q-97.529-10.609-88.867-11.173ZM-63.242-1.127A29.808,29.808,0,0,1-73.9.666q-4.407,0-6.048-3.434-1.179-2.409-1.179-7.38,0-3.177.487-9.481t.487-9.43q0-.666-.1-1.948t-.1-1.948q0-.513.051-1.076a1.908,1.908,0,0,1,1.537-.666q1.794,0,1.794,4.2,0,3.639-.666,10.916T-78.31-8.661q0,6.919,4.613,6.919a15.761,15.761,0,0,0,4.331-.871,15.761,15.761,0,0,1,4.331-.871,1.5,1.5,0,0,1,1.307.743A2.888,2.888,0,0,1-63.242-1.127Zm27.726-2.255q0,1.076-1.435,1.845a4.689,4.689,0,0,1-2.357.718q-4.254,0-8.456-5.842A89.1,89.1,0,0,1-53.2-16.349a41.078,41.078,0,0,0-3.28,4.356q-2.255,3.331-2.255,4.664,0,5.381,1.179,7.38l.1.871a1.612,1.612,0,0,1-1.23.666q-1.128,0-1.794-1.589a20.582,20.582,0,0,1-.871-3.613,19.942,19.942,0,0,1-.461-3.716l.923-25.061a1.893,1.893,0,0,0-.077-.487,1.792,1.792,0,0,1-.077-.436q0-1.9,1.435-1.9a4.114,4.114,0,0,1,2,.769q1.23.769,1.23,1.486a.5.5,0,0,1-.359.461,4.275,4.275,0,0,0-.564.307,4.329,4.329,0,0,0-.615,2.306q-.974,10.66-.974,16.092l.256.256q8.2-11.121,8.713-11.788,7.124-9.071,9.43-9.071a2.156,2.156,0,0,1,.513.051,10.185,10.185,0,0,0,.871,1.23,2.392,2.392,0,0,1,.564,1.333q0,.718-.615.718a4.18,4.18,0,0,1-.615-.128,4.18,4.18,0,0,0-.615-.128q-.923,0-4.869,4.356a31.456,31.456,0,0,0-4.356,5.586,4.857,4.857,0,0,0-.512,1.948q0,3.587,3.639,9.686,3.9,6.56,7.073,6.56a3.913,3.913,0,0,0,1.537-.461A3.889,3.889,0,0,1-36.388-4.1Q-35.516-4.1-35.516-3.383Zm31.724-28.6q0,1.281-.871,1.281a5.846,5.846,0,0,0-1.127-.564,11.028,11.028,0,0,0-3.946-.41h-2.306q-1.23,0-1.538.384a4.036,4.036,0,0,0-.487,1.743q-.179,1.358-.589,4.023a136.2,136.2,0,0,0-.974,16.759q0,6.611,1.384,8.918,0,.718-.513.718-2.665,0-3.382-3.075a25.959,25.959,0,0,1-.308-5.125q0-5.74.2-8.661.051-1.384.564-6.458.41-4.049.41-6.457,0-2.921.051-1.435-.051-.769-.666-.769a15.547,15.547,0,0,0-2.742.359,15.547,15.547,0,0,1-2.742.359,2.541,2.541,0,0,1-2.665-1.64q.512-.871,7.636-1.743,5.945-.666,8.661-.666Q-3.793-34.44-3.793-31.98Zm27.47-.41q-.82.615-.871.666a2.48,2.48,0,0,0-.564.923Q21.115-27.88,20.91-14.709q1.845.41,1.845,1.23a2.16,2.16,0,0,1-.461,1.179q-.513.205-1.486.615a61.487,61.487,0,0,0,.512,6.611q.051.256.513,1.538A5.235,5.235,0,0,1,22.191-2.1a2.045,2.045,0,0,1-.461,1.23,1.33,1.33,0,0,1-1.076.615q-1.384,0-1.9-2.05-.051-.256-.41-3.254T17.989-9.43a9.449,9.449,0,0,1,.154-1.743,44.6,44.6,0,0,0-7.483.871q-3.69.718-7.38,1.486l-.923.923q.051,1.948.051,3.946.2,3.024.974,3.895-.2.666-.641.666A2.884,2.884,0,0,0,1.717.846a2.731,2.731,0,0,1-.9.231q-.974,0-1.23-3.844-.1-2.409-.154-4.817L-.923-8.1l-.205.051a2.139,2.139,0,0,1-1.23-.384,1.164,1.164,0,0,1-.564-1,2.479,2.479,0,0,1,.461-1.153q.461-.743.922-.743a1.1,1.1,0,0,1,.282.051,1.1,1.1,0,0,0,.282.051l.256-.051q.051-2.255.051-9.02,0-8.969,1.23-12.2a1.918,1.918,0,0,1,1.845-1.384A2.736,2.736,0,0,1,4-33.338a1.606,1.606,0,0,1,.769,1.358A5.007,5.007,0,0,1,4.3-30.6q-.512,1.281-.564,1.486Q2.357-24.19,2.357-14.247q0,2.306.871,2.306.256,0,2.716-.513a51.2,51.2,0,0,1,7.38-1.025,7.374,7.374,0,0,0,1.563-.282,8.667,8.667,0,0,1,2.153-.282q1.051,0,1-1.435l-.1-4.51a62,62,0,0,1,.41-8.712q.769-6.868,2.767-6.868a2.323,2.323,0,0,1,1.845,1.076A3.981,3.981,0,0,1,23.677-32.39ZM48.021-2.152q-.256.564-.615.564a3.255,3.255,0,0,1-.589-.077,3.255,3.255,0,0,0-.589-.077A21.93,21.93,0,0,0,39.847-.333a21.93,21.93,0,0,1-6.381,1.409q-7.226,0-7.226-12.146,0-9.635.512-16.451l.1-1.64a5.58,5.58,0,0,0-.128-1.051,5.4,5.4,0,0,1-.128-.9q0-1.23,1.691-1.384a70.921,70.921,0,0,0,7.483-1.589,35.615,35.615,0,0,1,7.278-1.23,3.552,3.552,0,0,1,.718.1,2.53,2.53,0,0,1,1.589.461q.769.513.769,1.076,0,1.025-2.614,1.025a42.634,42.634,0,0,0-6.919.82q-5.125.974-6.355,2-.41,3.9-.974,12.2a.682.682,0,0,0,.564.256,16.493,16.493,0,0,0,4.561-.974A16.526,16.526,0,0,1,39-19.321a5.511,5.511,0,0,1,2.563.666l.41,1.538q.1.205-1.332.718a3.357,3.357,0,0,0-1.845-.461,23.9,23.9,0,0,0-4.843.923A30.957,30.957,0,0,0,29.11-14.4,39.221,39.221,0,0,0,28.9-9.174q0,7.739,3.946,7.739a17.72,17.72,0,0,0,5.458-1.281A17.72,17.72,0,0,1,43.768-4Q47.047-4,48.021-2.152ZM80.514-34.081a1.261,1.261,0,0,1-.384.871q-.384.41-.692.794a2.709,2.709,0,0,0-.307,1.563,10.9,10.9,0,0,1,0,1.691,177.288,177.288,0,0,0-1.281,20.5v4.869q.2,3.639,1.537,4.1V.82a.889.889,0,0,1-.871.564q-3.229,0-3.844-6.3a25.728,25.728,0,0,1-.051-4.869l1.332-16.554L72.16-12.505Q68.675-1.64,65.344-1.64q-1.486,0-3.075-1.9a10.223,10.223,0,0,1-1.948-3.178,86.439,86.439,0,0,1-3.28-11.224q-1.281-5.74-2.614-11.429l-.307.769a115.405,115.405,0,0,0-.769,13.581L53.864-3.28q.1,1.845,1.23,2Q55.145.1,52.634.1q-2.306,0-2.306-8.456,0-3.844.41-11.454t.41-11.454a4.213,4.213,0,0,0-.154-1.281,2.827,2.827,0,0,1-.154-.564q0-2,4.1-2a2.943,2.943,0,0,1,1.845,1.076q.154,1.589.461,4.715a95.26,95.26,0,0,0,3.024,13.12Q63.242-5.638,65.139-5.638q2.409,0,5.279-9.635a118.165,118.165,0,0,0,2.87-12.3q.666-1.948,1.691-5.535.615-2.306,3.536-2.306a2.789,2.789,0,0,1,1.333.359A1.085,1.085,0,0,1,80.514-34.081Zm24.6,31.929q-.256.564-.615.564a3.255,3.255,0,0,1-.589-.077,3.255,3.255,0,0,0-.589-.077A21.93,21.93,0,0,0,96.939-.333a21.93,21.93,0,0,1-6.381,1.409q-7.226,0-7.226-12.146,0-9.635.513-16.451l.1-1.64a5.581,5.581,0,0,0-.128-1.051,5.4,5.4,0,0,1-.128-.9q0-1.23,1.691-1.384a70.921,70.921,0,0,0,7.482-1.589,35.615,35.615,0,0,1,7.278-1.23,3.552,3.552,0,0,1,.717.1,2.53,2.53,0,0,1,1.589.461q.769.513.769,1.076,0,1.025-2.614,1.025a42.634,42.634,0,0,0-6.919.82q-5.125.974-6.355,2-.41,3.9-.974,12.2a.682.682,0,0,0,.564.256,16.493,16.493,0,0,0,4.561-.974,16.526,16.526,0,0,1,4.613-.974,5.511,5.511,0,0,1,2.563.666l.41,1.538q.1.205-1.332.718a3.357,3.357,0,0,0-1.845-.461,23.9,23.9,0,0,0-4.843.923A30.957,30.957,0,0,0,86.2-14.4,39.222,39.222,0,0,0,86-9.174q0,7.739,3.946,7.739A17.72,17.72,0,0,0,95.4-2.716,17.72,17.72,0,0,1,100.86-4Q104.14-4,105.114-2.152Zm19.988-2.2q0,2.87-3.588,4.408a15.446,15.446,0,0,1-6.15,1.23,20.512,20.512,0,0,1-6.611-1.23q-4.612-1.589-4.612-3.946,0-1.281,1.23-1.281a3.676,3.676,0,0,1,2.255,1.128q1.794,1.691,1.947,1.794,1.947,1.281,6.3,1.281,5.842,0,5.842-3.075,0-1.435-2.511-3.536-.41-.307-3.844-2.767a55.807,55.807,0,0,1-6.919-5.432,11.308,11.308,0,0,1-3.229-7.995,13.226,13.226,0,0,1,2.409-7.687q2.665-3.9,6.714-3.9a7.468,7.468,0,0,1,5.894,2.921,13.116,13.116,0,0,1,2.819,6.2q.051,1.23.41,3.741l.41,1.845q0,4.1-2,4.1a1.488,1.488,0,0,1-1.051-.589,1.7,1.7,0,0,1-.538-1.1,10.581,10.581,0,0,1,.308-2.1,10.581,10.581,0,0,0,.308-2.1,16.2,16.2,0,0,0-1.128-6.252q-1.486-3.69-4.51-3.69a6.136,6.136,0,0,0-5.048,2.639,9.27,9.27,0,0,0-2.024,5.766q0,4.2,4.407,7.995,4.049,2.921,8.149,5.894Q125.1-6.919,125.1-4.356Z" transform="translate(125.409 35.567)" fill="#fff"/>
</svg>
